inDegrees=yes
name=ik_lifting_orientations
DataType=double
version=3
OpenSimVersion=4.5-2024-01-10-34fd6af
endheader
time	pelvis_tilt	pelvis_list	pelvis_rotation	pelvis_tx	pelvis_ty	pelvis_tz	hip_flexion_r	hip_adduction_r	hip_rotation_r	knee_angle_r	knee_angle_r_beta	ankle_angle_r	subtalar_angle_r	mtp_angle_r	hip_flexion_l	hip_adduction_l	hip_rotation_l	knee_angle_l	knee_angle_l_beta	ankle_angle_l	subtalar_angle_l	mtp_angle_l	lumbar_extension	lumbar_bending	lumbar_rotation	arm_flex_r	arm_add_r	arm_rot_r	elbow_flex_r	pro_sup_r	wrist_flex_r	wrist_dev_r	arm_flex_l	arm_add_l	arm_rot_l	elbow_flex_l	pro_sup_l	wrist_flex_l	wrist_dev_l
0.02	0.003031763516708317	0.008484055597916467	-90.08968300239093	0	0.9399999998679526	0	45.77353780471007	-10.91088528268635	0	60.14219711235649	1.049679358994047	-5.38956080500333	0	0	45.77353780471007	-10.91088528268635	0	60.14219711235649	1.049679358994047	-5.38956080500333	0	0	0.01312296392105378	0.002082492515268309	0.005219290316679656	-0.4779093468326442	-0.1083537645564013	0.002878975233733327	0.9767113769032632	1.909859391162874	0	0	0	-11.48972790858067	0	88.12802261875746	1.909859391162874	0	0
0.03	-0.07832863218926982	0.01583764168518661	-89.65539160377689	0	0.9399999998679526	0	45.7733537754864	-10.91014253656429	0	60.14217018111157	1.049678888955151	-5.389148216901705	0	0	45.7733537754864	-10.91014253656429	0	60.14217018111157	1.049678888955151	-5.389148216901705	0	0	-0.02519130186535437	0.08352274346762684	-0.4184940511411198	-0.2099852003205281	-0.05769060402969983	-0.003348416214418786	0.4604620338738235	1.909541278278861	0	0	0	-11.49016055278702	0	88.12833438807988	1.909541278278861	0	0
0.04	-0.07701593606626637	0.006887929509473908	-89.57835153256802	0	0.9399999998679526	0	45.75966849607947	-10.8614538962481	0	60.14017773958261	1.049644114290317	-5.363458627745453	0	0	45.75966849607947	-10.8614538962481	0	60.14017773958261	1.049644114290317	-5.363458627745453	0	0	-0.01043274244916333	0.07812934028795628	-0.4891725256037164	-0.2941752787549199	-0.06653027306837207	-0.01541641557937875	0.5846195679192571	1.885580896650878	0	0	0	-11.52294612225776	0	88.15181700875581	1.885580896650878	0	0
0.05	-0.0490422766301018	0.002509714391527672	-89.72088668672376	0	0.9399999998679526	0	45.72213939708695	-10.73084105278812	0	60.13470395607716	1.049548578745606	-5.295221521789175	0	0	45.72213939708695	-10.73084105278812	0	60.13470395607716	1.049548578745606	-5.295221521789175	0	0	0.01289705266656471	0.05014937483305457	-0.3515830797378141	-0.4925238937113813	-0.1035157256584032	-0.006535522042267029	0.9459771914637369	1.819707927620033	0	0	0	-11.61321708517989	0	88.21637650823055	1.819707927620033	0	0
0.06	-0.04958797545375705	-0.04785967306961854	-89.83487103243026	0	0.9399999998679526	0	45.70134195732864	-10.66486478027214	0	60.13164397036792	1.049495171919916	-5.261965721328745	0	0	45.70134195732864	-10.66486478027214	0	60.13164397036792	1.049495171919916	-5.261965721328745	0	0	-0.03661774741366659	0.05442667125999611	-0.239561955050311	-0.5088359032639058	-0.10833796759037	-0.03245727234302123	0.9528182486317588	1.782756178735684	0	0	0	-11.66423283214753	0	88.25259150389745	1.782756178735684	0	0
0.07000000000000001	-0.02085708474994369	-0.06104168736103614	-89.89072631984693	0	0.9399999998679526	0	45.68108641879097	-10.60453061669454	0	60.12864590821599	1.049442845864185	-5.232271650548808	0	0	45.68108641879097	-10.60453061669454	0	60.12864590821599	1.049442845864185	-5.232271650548808	0	0	-0.05420909826174956	0.02023595960263084	-0.1813509202116647	-0.2626109914220033	-0.03191966839451826	-0.07636849129538538	0.4723308198560524	1.7464641726945	0	0	0	-11.71459540210304	0	88.28815993847539	1.7464641726945	0	0
0.08	-0.07422641370861568	-0.0601929345087223	-89.71201538174972	0	0.9399999998679526	0	45.68096772293183	-10.60416676620912	0	60.12862816708795	1.049442536223088	-5.232089743193336	0	0	45.68096772293183	-10.60416676620912	0	60.12862816708795	1.049442536223088	-5.232089743193336	0	0	-0.05182034168029333	0.06787186123199451	-0.39889835055624	-0.2946173928761217	-0.03032649150756112	-0.04461450234576799	0.4355728066250004	1.746251583169989	0	0	0	-11.71489073260697	0	88.28836828945651	1.746251583169989	0	0
0.09	-0.04600760356797658	-0.001768222320935243	-89.71456067085748	0	0.9399999998679526	0	45.66107346202607	-10.55113245445351	0	60.12565115334513	1.049390577531399	-5.207014241517132	0	0	45.66107346202607	-10.55113245445351	0	60.12565115334513	1.049390577531399	-5.207014241517132	0	0	-0.001908261290360751	0.04230996232520799	-0.4197376653013605	-0.2773473028671193	-0.03046405938696514	-0.01864688022672786	0.4322388506605397	1.710054443994974	0	0	0	-11.76560035242647	0	88.32384379760737	1.710054443994974	0	0
0.1	-0.0225562674420934	-0.002712747113475255	-89.88649212509694	0	0.9399999998679526	0	45.66097237141112	-10.55084162303506	0	60.12563593856327	1.04939031198336	-5.206872109145271	0	0	45.66097237141112	-10.55084162303506	0	60.12563593856327	1.04939031198336	-5.206872109145271	0	0	0.009260048524157339	0.02690652273189645	-0.2711959397650777	-0.2976680428216401	-0.04482484349348928	-0.02041745605810437	0.4392133649599018	1.709871748448718	0	0	0	-11.76585558681167	0	88.32402285077066	1.709871748448718	0	0
0.11	-0.04289103230190509	-0.05874869624963951	-89.89309870443746	0	0.9399999998679526	0	45.64796837611076	-10.51852915835365	0	60.12367612773915	1.049356106831763	-5.191966834359479	0	0	45.64796837611076	-10.51852915835365	0	60.12367612773915	1.049356106831763	-5.191966834359479	0	0	-0.05522385424061182	0.04092003784762628	-0.2410446509110911	-0.2907513253123	-0.03839065049067581	-0.04817308802373273	0.4479367958694313	1.685973617546187	0	0	0	-11.79954321850135	0	88.34744456443892	1.685973617546187	0	0
0.12	-0.0448408881989662	-0.004013387420995898	-89.82411196921892	0	0.9399999998679526	0	45.61716681519635	-10.44822785805297	0	60.11899600424575	1.049274423267403	-5.160568751117383	0	0	45.61716681519635	-10.44822785805297	0	60.11899600424575	1.049274423267403	-5.160568751117383	0	0	0.002791776520652513	0.03779947226539882	-0.3031559147021203	-0.2958459243090549	-0.0356749298051053	-0.07905205482529304	0.4334099686345763	1.628720917903877	0	0	0	-11.88081284232597	0	88.40355596246184	1.628720917903877	0	0
0.13	-0.02966813509134023	0.05986430887423083	-89.7681205843986	0	0.9399999998679526	0	45.59783852110301	-10.40651531324612	0	60.11604060686268	1.049222841852364	-5.142249934600172	0	0	45.59783852110301	-10.40651531324612	0	60.11604060686268	1.049222841852364	-5.142249934600172	0	0	0.1126959596747523	0.02007088555621697	-0.367383138307432	-0.3389656508545668	-0.04156498835223996	-0.07455792033914475	0.4435774578750826	1.592474840525915	0	0	0	-11.93255224344272	0	88.43907951610493	1.592474840525915	0	0
0.14	-0.05158669925005339	0.06334902346216052	-89.5262161598184	0	0.9399999998679526	0	45.59769451922464	-10.40617852741544	0	60.1160184244426	1.049222454696097	-5.142096697510119	0	0	45.59769451922464	-10.40617852741544	0	60.1160184244426	1.049222454696097	-5.142096697510119	0	0	0.09937958685086729	0.0468383812940951	-0.6720312291019375	-0.3186699721618233	-0.04539242312660863	-0.009834658224462186	0.4282766854165979	1.592206613930957	0	0	0	-11.93293413902988	0	88.43934239573117	1.592206613930957	0	0
0.15	-0.01766207939640088	0.06412010397741479	-89.72868574218938	0	0.9399999998679526	0	45.59761986581645	-10.40600439835942	0	60.11600690295507	1.049222253608205	-5.142017516248167	0	0	45.59761986581645	-10.40600439835942	0	60.11600690295507	1.049222253608205	-5.142017516248167	0	0	0.08348094415640032	0.02011941907958464	-0.5597423463792451	-0.3149218540856697	-0.05552772503191509	0.07938238467873063	0.441152650116626	1.592067453500655	0	0	0	-11.93313239960819	0	88.43947878207111	1.592067453500655	0	0
0.16	0.02269331828673407	0.06598448729666259	-89.94054614512785	0	0.9399999998679526	0	45.59751632045142	-10.40576202673124	0	60.11599097029369	1.049221975530805	-5.141907235823981	0	0	45.59751632045142	-10.40576202673124	0	60.11599097029369	1.049221975530805	-5.141907235823981	0	0	0.07696462834435683	-0.01766913243657655	-0.346503217380043	-0.3022800700909078	-0.06198112270696816	0.04662083282177489	0.4231286902050105	1.591874654306179	0	0	0	-11.93340681397178	0	88.43966773790244	1.591874654306179	0	0
0.17	-0.01318976408096871	-0.003204614169582316	-89.90081532526473	0	0.9399999998679526	0	45.58420456676756	-10.37763975859191	0	60.11395094059306	1.049186370295691	-5.129656177973135	0	0	45.58420456676756	-10.37763975859191	0	60.11395094059306	1.049186370295691	-5.129656177973135	0	0	0.05626756666284081	-0.00805505716226263	-0.3159033972292808	-0.561880138329052	-0.09610659613899793	-0.05591998750004182	0.9072370708342732	1.566838124761189	0	0	0	-11.96921033522797	0	88.46420519690935	1.566838124761189	0	0
0.18	0.001995281517072188	-0.005654663496787415	-89.7554114376304	0	0.9399999998679526	0	45.57174053224918	-10.35246184084822	0	60.1120326663189	1.049152890093651	-5.118872450946101	0	0	45.57174053224918	-10.35246184084822	0	60.1120326663189	1.049152890093651	-5.118872450946101	0	0	0.05160536778849632	-0.01161001779222702	-0.4479649778360198	-0.3261994856686313	-0.05752023330882907	-0.06722216631853556	0.4553691841929001	1.54325534999848	0	0	0	-12.00305847012273	0	88.48731788920514	1.54325534999848	0	0
